<svg xmlns="http://www.w3.org/2000/svg" viewBox="0 0 100 100" id="meditation"><path d="M95.83 94.83h-1a6.14 6.14 0 0 0-6.07-5.15H86.89a5.39 5.39 0 0 0 1.22-3.42A9.79 9.79 0 0 0 81.31 77h0a4.2 4.2 0 0 0 .46-7.07l-9.56-7.05L70 47.74c-1-5.34-4.57-6.83-6.4-6.9a61.24 61.24 0 0 0-27.14 0C34.58 40.91 31 42.4 30 47.78l-2.2 15.07L18.25 69.9a4.2 4.2 0 0 0-1.54 4.61h0a4.17 4.17 0 0 0 2 2.47 9.74 9.74 0 0 0-6.84 9.28 5.41 5.41 0 0 0 1.22 3.42H11.39a6.15 6.15 0 0 0-6.07 5.15H4.17a1 1 0 0 0 0 2H95.83a1 1 0 0 0 0-2zM83 80.06a7.66 7.66 0 0 1 3.12 6.2 3.43 3.43 0 0 1-3.42 3.42H50.5A1.78 1.78 0 0 1 50 86.19l26.13-7.31a7.7 7.7 0 0 1 2.21-.34h.09A7.67 7.67 0 0 1 83 80.06zM25.8 75.55l.05 0h0L35 71.08a1 1 0 0 0 .5-.6v6.06H23.76zm10.52 3A30 30 0 0 0 50 82a30 30 0 0 0 13.68-3.45h6.26L49.49 84.26l-.22.07h0L29.73 78.54zm39.9-2H64.44V70.48a1 1 0 0 0 .5.6zm5.14-2.6a2.23 2.23 0 0 1-3.22 1.31l-2-1 2.65-4.07 1.74 1.29A2.22 2.22 0 0 1 81.36 73.94zm-52-9.73a1 1 0 0 0 .4-.66L32 48.12c1-5.15 4.43-5.27 4.56-5.28l.22 0a59.05 59.05 0 0 1 26.45 0l.23 0S67 42.9 68 48.07l2.26 15.48a1 1 0 0 0 .39.66L77.19 69l-2.86 4.38-8.09-3.93-1.8-7.4v-9a1 1 0 0 0-2 0V76.92a27 27 0 0 1-24.9 0V53.05a1 1 0 0 0-2 0v9l-1.8 7.4L25.66 73.4 22.81 69zm-9.9 7.3l1.76-1.3 2.66 4.07-2 1a2.23 2.23 0 0 1-3.19-1.33h0A2.23 2.23 0 0 1 19.43 71.51zM17 80.06a7.7 7.7 0 0 1 6.84-1.18l23.5 7a3.75 3.75 0 0 0-.62 2.05 3.7 3.7 0 0 0 .45 1.78H17.31a3.43 3.43 0 0 1-3.42-3.42A7.66 7.66 0 0 1 17 80.06zM11.39 91.68H88.81a4.14 4.14 0 0 1 4 3.15H7.36A4.14 4.14 0 0 1 11.39 91.68zM50 36.83a12 12 0 1 0-12-12A12 12 0 0 0 50 36.83zm0-22a10 10 0 1 1-10 10A10 10 0 0 1 50 14.83z" data-name="ICON 10"></path></svg>